{"title":"Star Wars Episode IV A New Hope 1977 720p BRRiP XViD AC3 - IMAGi","uid":6643081,"size":3694826879,"categoryP":"video","categoryS":"hd___movies","magnet":"?xt=urn:btih:fc2253c6ea1332b5492618777f61d3d39a3c2ca0&amp;dn=Star+Wars+Episode+IV+A+New+Hope+1977+720p+BRRiP+XViD+AC3+-+IMAGi&amp;tr=udp%3A%2F%2Ftracker.openbittorrent.com%3A80&amp;tr=udp%3A%2F%2Fopen.demonii.com%3A1337&amp;tr=udp%3A%2F%2Ftracker.coppersurfer.tk%3A6969&amp;tr=udp%3A%2F%2Fexodus.desync.com%3A6969","seeders":0,"leechers":0,"uploader":"sceneline","files":78,"time":1314826179,"description":"- &lt;a href=&quot;\nhttp://www.Speed.Cd&quot; rel=&quot;nofollow&quot; target=&quot;_NEW&quot;&gt;\nhttp://www.Speed.Cd&lt;/a&gt; \n       &lt;a href=&quot;\nhttp://www.Speed.Cd&quot; rel=&quot;nofollow&quot; target=&quot;_NEW&quot;&gt;\nhttp://www.Speed.Cd&lt;/a&gt;      fast  and The Hottest Private Tracker on the net\n\n(((--Submit for invite!!--)))\n\nPlease Seed back to make the speed Faster!!!\n\n------------------nfo--------------------------\n-  \n\n[pre]ooooo ooo        ooooo       .o.         .oooooo.     o8o  ooooo      ooo oooooooooooo \n\n      888' `88.       .888'      .888.       d8P'  `Y8b    `&quot;'  `888b.     `8' `888'     `8 \n\n      888   888b     d'888      .8&quot;888.     888           oooo   8 `88b.    8   888         \n\n      888   8 Y88. .P  888     .8' `888.    888           `888   8   `88b.  8   888oooo8    \n\n      888   8  `888'   888    .88ooo8888.   888     ooooo  888   8     `88b.8   888    &quot;    \n\n      888   8    Y     888   .8'     `888.  `88.    .88'   888   8       `888   888       o \n\n     o888o o8o        o888o o88o     o8888o  `Y8bood8P'   o888o o8o        `8  o888ooooood8  \n\n                                                \n\n\n\n\n\n\n\n                  Another Fine Release Brought to you from - IMAGiNE                   \n\n                                                 \n\n\n\n******************************************************************************************\n\n          Star Wars Episode IV A New Hope 1977 720p BRRiP XViD AC3 - IMAGiNE                 \n\n******************************************************************************************\n\n\n\nRipper ...........: IMAGiNE              IMDB Rating.......: 8.0/10                             \n\nVideo Codec.......: XViD                 Release Date......: 31/08/11\n\nAudio Codec.......: AC3                  Theatre Date......: 25/05/77\n\nAudio Bitrate.....: 448                  Runtime...........: 2h 4mn\n\nSubtitles.........: NIL                  Language..........: ENGLISH\n\nResolution........: 1280 x 544            IMDb URL..........: http://www.imdb.com/title/tt0076759/\n\n\n\n\n\n[color=yellow]DETAILS:[/color]\n\n\n\nVideo\nID                               : 0\nFormat                           : MPEG-4 Visual\nFormat profile                   : Advanced Simple@L5\nFormat settings, BVOP            : 2\nFormat settings, QPel            : No\nFormat settings, GMC             : No warppoints\nFormat settings, Matrix          : Default (MPEG)\nMuxing mode                      : Packed bitstream\nCodec ID                         : XVID\nCodec ID/Hint                    : XviD\nDuration                         : 2h 4mn\nBit rate                         : 3 434 Kbps\nWidth                            : 1 280 pixels\nHeight                           : 544 pixels\nDisplay aspect ratio             : 2.35:1\nFrame rate                       : 23.976 fps\nColor space                      : YUV\nChroma subsampling               : 4:2:0\nBit depth                        : 8 bits\nScan type                        : Progressive\nCompression mode                 : Lossy\nBits/(Pixel*Frame)               : 0.206\nStream size                      : 2.99 GiB (88%)\nWriting library                  : XviD 64\n\nAudio\nID                               : 1\nFormat                           : AC-3\nFormat/Info                      : Audio Coding 3\nMode extension                   : CM (complete main)\nCodec ID                         : 2000\nDuration                         : 2h 4mn\nBit rate mode                    : Constant\nBit rate                         : 448 Kbps\nChannel(s)                       : 6 channels\nChannel positions                : Front: L C R, Side: L R, LFE\nSampling rate                    : 48.0 KHz\nBit depth                        : 16 bits\nCompression mode                 : Lossy\nStream size                      : 400 MiB (12%)\nAlignment                        : Aligned on interleaves\nInterleave, duration             : 42 ms (1.00 video frame)\nInterleave, preload duration     : 512 ms\n\n\n\n\n\n\n\n\n\n[color=yellow]SOURCES:[/color]\n\n\n\nVIDEO: ............. Star.Wars.Episode.4.A.New.Hope.1977.BluRay.1080p.DTSES6.1.2Audio.x264-CHD\n\nAUDIO: ............. Star.Wars.Episode.4.A.New.Hope.1977.BluRay.1080p.DTSES6.1.2Audio.x264-CHD  Thanks\n\n\n\n[color=yellow]NOTES:[/color]\n\nOk so here we had a go at Star Wars 720p :P\nWe made a script to crop, \nrun a heavy denoiser, resize, sharpen,\nmade a slightest rgb change and so on....\nAudio was converted from \nDTS to AC3 and muxed to our encode\nEnjoy!\n\n\n\n\n\n[color=yellow]SCREENS:[/color]\n\n\n\n[IMG]http://i.imgur.com/ODYH6.jpg[/IMG]\n\n[IMG]http://i.imgur.com/cxuye.jpg[/IMG]\n\n[IMG]http://i.imgur.com/N2BeJ.jpg[/IMG]\n\n[IMG]http://i.imgur.com/Zmh0l.jpg[/IMG]\n\n[IMG]http://i.imgur.com/UBxGG.jpg[/IMG]\n\n[IMG]http://i.imgur.com/6p9LY.jpg[/IMG]\n\n\n\n\n\n[color=yellow]GREETS:[/color]\n\n\n\nFLAWL3SS,KINOPARK,Rx,ELEKTRI4KA,ADDiCTED,Autotron,CiNEDUB,CRYS\n\nAnd to all the other p2p grps past and present \n\n\n\n[COLOR=RED]Looking for these,syncers,cammers,audio,silver supplier.....Have anything to offer????......\n\nContact us &lt;a class=&quot;__cf_email__&quot; href=&quot;/cdn-cgi/l/email-protection&quot; data-cfemail=&quot;6f06020e0806010a081d001a1f2f071a1c07020e0603410c0002&quot;&gt;[email&amp;#160;protected]&lt;/a&gt;&lt;script cf-hash='f9e31' type=&quot;text/javascript&quot;&gt;\n/* &lt;![CDATA[ */!function(){try{var t=&quot;currentScript&quot;in document?document.currentScript:function(){for(var t=document.getElementsByTagName(&quot;script&quot;),e=t.length;e--;)if(t[e].getAttribute(&quot;cf-hash&quot;))return t[e]}();if(t&amp;&amp;t.previousSibling){var e,r,n,i,c=t.previousSibling,a=c.getAttribute(&quot;data-cfemail&quot;);if(a){for(e=&quot;&quot;,r=parseInt(a.substr(0,2),16),n=2;a.length-n;n+=2)i=parseInt(a.substr(n,2),16)^r,e+=String.fromCharCode(i);e=document.createTextNode(e),c.parentNode.replaceChild(e,c)}}}catch(u){}}();/* ]]&gt; */&lt;/script&gt;[/COLOR]","torrent":{"xt":"urn:btih:fc2253c6ea1332b5492618777f61d3d39a3c2ca0","amp;dn":"Star+Wars+Episode+IV+A+New+Hope+1977+720p+BRRiP+XViD+AC3+-+IMAGi","amp;tr":["udp%3A%2F%2Ftracker.openbittorrent.com%3A80","udp%3A%2F%2Fopen.demonii.com%3A1337","udp%3A%2F%2Ftracker.coppersurfer.tk%3A6969","udp%3A%2F%2Fexodus.desync.com%3A6969"],"infoHash":"fc2253c6ea1332b5492618777f61d3d39a3c2ca0","infoHashBuffer":{"type":"Buffer","data":[252,34,83,198,234,19,50,181,73,38,24,119,127,97,211,211,154,60,44,160]},"announce":[],"urlList":[]}}